<?xml version="1.0" encoding="utf-8"?>
<!-- Generator: Adobe Illustrator 16.0.0, SVG Export Plug-In . SVG Version: 6.00 Build 0)  -->
<!DOCTYPE svg PUBLIC "-//W3C//DTD SVG 1.1//EN" "http://www.w3.org/Graphics/SVG/1.1/DTD/svg11.dtd">
<svg version="1.1"
	 id="svg4228" xmlns:dc="http://purl.org/dc/elements/1.1/" xmlns:cc="http://creativecommons.org/ns#" xmlns:rdf="http://www.w3.org/1999/02/22-rdf-syntax-ns#" xmlns:svg="http://www.w3.org/2000/svg" xmlns:sodipodi="http://sodipodi.sourceforge.net/DTD/sodipodi-0.dtd" xmlns:inkscape="http://www.inkscape.org/namespaces/inkscape" sodipodi:docname="CampusRight1510.svg" inkscape:version="0.91 r13725"
	 xmlns="http://www.w3.org/2000/svg" xmlns:xlink="http://www.w3.org/1999/xlink" x="0px" y="0px" width="341.138px"
	 height="69.445px" viewBox="0 0 341.138 69.445" enable-background="new 0 0 341.138 69.445" xml:space="preserve">
<sodipodi:namedview  showguides="true" showgrid="false" inkscape:cy="608.84768" inkscape:cx="506.89735" inkscape:zoom="1.0180722" borderopacity="1.0" bordercolor="#666666" pagecolor="#ffffff" id="base" inkscape:window-maximized="1" inkscape:window-y="-8" inkscape:window-x="-8" inkscape:window-height="1058" inkscape:current-layer="g5207" inkscape:window-width="1920" inkscape:pageshadow="2" inkscape:document-units="px" inkscape:pageopacity="0.0" inkscape:guide-bbox="true">
	</sodipodi:namedview>
<g id="layer1" inkscape:label="Layer 1" inkscape:groupmode="layer">
	<g id="g5207">
		<g id="g16328" transform="translate(-12.82185,-415.23629)">
			<path id="path5093-5-4-6-4" inkscape:connector-curvature="0" sodipodi:nodetypes="scccccccccscscccssccscs" fill="#5AA02C" d="
				M209.321,462.011c-2.409,0-4.497-0.763-6.264-2.289c-1.927-1.667-3.156-3.764-3.156-6.294h6.565c0,0.823,0.816,2.237,1.68,2.578
				c0.442,0.181,0.874,0.271,1.295,0.271c1.475,0.008,2.832-0.581,2.885-2.338c0-0.583-0.284-1.033-0.565-1.293
				c-0.462-0.462-1.396-0.783-2.801-0.964c-2.931-0.321-5.22-1.365-6.866-3.132c-1.466-1.566-2.199-3.383-2.199-5.451
				c0-2.449,0.803-4.577,2.41-6.384c1.747-2.008,4.035-3.011,6.866-3.011c2.811,0,5.129,0.913,6.957,2.74
				c1.827,1.847,2.624,4.139,2.624,6.91h-6.565c0-2.047-0.957-3.342-3.044-3.342c-1.807,0-2.854,1.048-2.825,2.629
				c0.021,1.144,1.142,2.306,3.396,2.567c3.453,0.401,5.942,1.616,7.468,3.644c1.044,1.385,1.566,3.072,1.566,5.06
				c0,2.369-0.934,4.316-2.801,5.842C214.099,461.258,211.891,462.011,209.321,462.011L209.321,462.011z"/>
			
				<path id="path5081-5-0-7-8-2" inkscape:connector-curvature="0" sodipodi:nodetypes="scscscscscccccscscscscscc" fill="#FF8811" d="
				M286.08,440.426c-2.032,0-3.782,0.724-5.25,2.172c-1.429,1.468-2.143,3.228-2.143,5.28c0,2.032,0.714,3.782,2.143,5.25
				c1.468,1.448,3.218,2.172,5.25,2.172c2.051,0,3.811-0.725,5.279-2.172c1.448-1.468,2.172-3.218,2.172-5.25
				c0-2.051-0.724-3.812-2.172-5.28C289.891,441.15,288.131,440.426,286.08,440.426z M300.23,464.925
				c0,6.155-1.81,10.801-5.431,13.939c-2.735,2.394-5.871,3.615-9.311,3.615c-0.002-2.205-0.002-4.427-0.002-6.688
				c1.67-0.04,3.199-0.587,4.546-1.634c2.354-1.83,3.53-4.908,3.53-9.232v-4.948c-2.213,1.388-4.707,2.082-7.482,2.082
				c-3.902,0-7.23-1.388-9.986-4.164c-2.796-2.775-4.193-6.114-4.193-10.017c0-3.922,1.397-7.261,4.193-10.017
				c2.756-2.796,6.084-4.194,9.986-4.194c3.922,0,7.271,1.398,10.047,4.194c2.735,2.755,4.104,6.094,4.104,10.017L300.23,464.925
				L300.23,464.925z"/>
			<path id="path5077-7-9-4-5-4" inkscape:connector-curvature="0" sodipodi:nodetypes="ccscccccccccscccc" fill="#FF8205" d="
				M237.125,444.077c10.279-0.005,14.621-10.225,8.629-15.756c-2.394-2.394-6.502-3.591-8.629-3.591h-5.25v19.347H237.125z
				 M247.926,462.059l-8.749-11.012h-7.302v11.012h-6.969v-44.267h12.219c5.29,0,10.162,1.612,13.902,5.353
				c7.955,8.733,5.252,20.4-4.7,25.579l10.47,13.335H247.926z"/>
			<path id="path5079-0-4-6-2-7" inkscape:connector-curvature="0" sodipodi:nodetypes="ccccc" fill="#FF8205" d="M267.688,462.059
				h-6.667v-28.846l6.667,6.624V462.059z"/>
			<path id="path5083-3-8-7-5-9" inkscape:connector-curvature="0" sodipodi:nodetypes="scsccscscscccccs" fill="#FF8205" d="
				M318.995,433.698c3.842,0,7.129,1.357,9.865,4.073c2.734,2.736,4.104,6.034,4.104,9.896v14.392h-6.668v-14.392
				c0-2.032-0.715-3.751-2.143-5.159c-1.428-1.448-3.148-2.172-5.158-2.172c-2.012,0-3.742,0.724-5.189,2.172
				c-1.43,1.408-2.143,3.127-2.143,5.159v14.392h-6.85v-44.268h6.668v18.079C313.754,434.422,316.258,433.698,318.995,433.698
				L318.995,433.698z"/>
			<path id="path5085-4-7-6-1-9" inkscape:connector-curvature="0" sodipodi:nodetypes="ccccccccccccc" fill="#FF8205" d="
				M351.624,436.177h-5.461v25.881h-6.336v-25.881h-5.461v-6.366h5.461v-12.02h6.336v12.02h5.461V436.177z"/>
			<path id="path14210-0-8" inkscape:connector-curvature="0" sodipodi:nodetypes="ccccccc" fill="#5AA02C" d="M260.977,418.768
				v9.446l6.703,6.687l17.119-17.102h-9.479l-7.641,7.657L260.977,418.768z"/>
			<path id="path15038" inkscape:connector-curvature="0" fill="#5AA02C" stroke="#5AA02C" stroke-width="1.4202" d="
				M39.826,418.402c-2.912,0-5.718,0.563-8.402,1.686l-0.001,0.001c-2.562,1.088-4.85,2.627-6.848,4.608v0.002h-0.001
				c-1.983,1.982-3.523,4.271-4.611,6.851c-1.123,2.667-1.686,5.466-1.686,8.377c0,2.929,0.563,5.735,1.686,8.403
				c1.088,2.579,2.628,4.875,4.609,6.874l0.002,0.002l0.001,0.001c1.999,1.981,4.286,3.52,6.848,4.608l0.001,0.001
				c2.684,1.123,5.49,1.686,8.402,1.686c2.912,0,5.71-0.563,8.378-1.686l0.003-0.001h0.001c2.367-1.017,4.501-2.405,6.394-4.158
				l0.435-0.401l-4.649-4.649l-0.401,0.366c-1.289,1.173-2.729,2.102-4.332,2.796c-1.863,0.773-3.801,1.159-5.829,1.159
				c-2.031,0-3.97-0.386-5.835-1.162c-1.795-0.758-3.379-1.833-4.764-3.235l-0.003-0.002l-0.001-0.003
				c-1.385-1.369-2.452-2.944-3.21-4.742c-0.775-1.863-1.161-3.811-1.161-5.858c0-2.013,0.386-3.954,1.162-5.837v-0.001
				c0.758-1.778,1.825-3.353,3.21-4.739c1.387-1.387,2.976-2.465,4.775-3.241c1.862-0.773,3.799-1.159,5.827-1.159
				c2.031,0,3.971,0.386,5.835,1.162h0.001c1.615,0.693,3.05,1.629,4.318,2.814l0.402,0.375l0.387-0.389l4.262-4.26l-0.425-0.401
				c-1.878-1.773-4.016-3.164-6.403-4.165C45.537,418.965,42.738,418.402,39.826,418.402L39.826,418.402z"/>
			<path id="path15040" inkscape:connector-curvature="0" fill="#5AA02C" d="M72.597,440.457c-2.031,0-3.781,0.724-5.25,2.172
				c-1.428,1.468-2.142,3.218-2.142,5.249s0.714,3.781,2.142,5.249c1.468,1.448,3.218,2.172,5.25,2.172
				c2.051,0,3.811-0.724,5.279-2.172c1.448-1.468,2.172-3.218,2.172-5.249s-0.724-3.781-2.172-5.249
				C76.408,441.181,74.649,440.457,72.597,440.457z M80.139,459.945c-2.232,1.408-4.747,2.112-7.542,2.112
				c-3.902,0-7.23-1.388-9.986-4.163c-2.795-2.775-4.193-6.114-4.193-10.016s1.398-7.23,4.193-9.985
				c2.755-2.795,6.084-4.193,9.986-4.193c3.922,0,7.27,1.398,10.046,4.193c2.775,2.755,4.163,6.083,4.163,9.985v14.179h-6.667
				V459.945L80.139,459.945z"/>
			<path id="path15042" inkscape:connector-curvature="0" sodipodi:nodetypes="scsccsssssccscscsccssscs" fill="#5AA02C" d="
				M119.898,433.7c3.286,0,6.083,1.164,8.389,3.49c2.327,2.327,3.491,5.133,3.491,8.42v16.447h-6.705V445.61
				c0-1.429-0.51-2.654-1.531-3.674c-1-1-2.214-1.5-3.643-1.5s-2.644,0.5-3.644,1.5c-1.021,1.021-1.531,2.245-1.531,3.674v16.447
				h-6.797V445.61c0-1.429-0.5-2.654-1.5-3.674c-1.021-1-2.245-1.5-3.674-1.5c-1.409,0-2.623,0.5-3.644,1.5
				c-1,1.021-1.5,2.245-1.5,3.674v16.447h-6.736V445.61c0-3.287,1.164-6.093,3.491-8.42c2.327-2.327,5.123-3.49,8.389-3.49
				c3.368,0,6.225,1.214,8.573,3.644C113.672,434.914,116.529,433.7,119.898,433.7L119.898,433.7z"/>
			<path id="path15044" inkscape:connector-curvature="0" sodipodi:nodetypes="scscscscsccscscsccccc" fill="#5AA02C" d="
				M150.093,440.422c-2.05,0-3.809,0.724-5.276,2.17c-1.447,1.467-2.17,3.226-2.17,5.276c0,2.03,0.724,3.778,2.17,5.246
				c1.467,1.447,3.226,2.17,5.276,2.17c2.03,0,3.778-0.724,5.245-2.17c1.427-1.467,2.141-3.216,2.141-5.246
				c0-2.05-0.713-3.809-2.141-5.276C153.871,441.146,152.123,440.422,150.093,440.422z M135.954,447.868
				c0-3.919,1.367-7.255,4.1-10.009c2.773-2.793,6.12-4.19,10.039-4.19c3.899,0,7.225,1.397,9.979,4.19
				c2.793,2.753,4.19,6.09,4.19,10.009c0,3.899-1.397,7.235-4.19,10.009c-2.753,2.773-6.08,4.16-9.979,4.16
				c-2.773,0-5.266-0.693-7.477-2.08v21.772h-6.663V447.868L135.954,447.868z"/>
			<path id="path15046" inkscape:connector-curvature="0" fill="#5AA02C" d="M181.873,462.057c-3.861,0-7.15-1.368-9.865-4.103
				c-2.735-2.715-4.103-6.003-4.103-9.865V433.7h6.728v14.39c0,2.011,0.704,3.73,2.112,5.159c1.448,1.428,3.167,2.142,5.159,2.142
				s3.71-0.714,5.159-2.142c1.408-1.428,2.112-3.148,2.112-5.159V433.7h6.727v14.39c0,3.861-1.368,7.149-4.103,9.865
				c-2.715,2.735-6.003,4.103-9.865,4.103H181.873L181.873,462.057z"/>
		</g>
	</g>
</g>
</svg>
