<?xml version="1.0" encoding="utf-8"?>
<!-- Generator: Adobe Illustrator 16.0.0, SVG Export Plug-In . SVG Version: 6.00 Build 0)  -->
<!DOCTYPE svg PUBLIC "-//W3C//DTD SVG 1.1//EN" "http://www.w3.org/Graphics/SVG/1.1/DTD/svg11.dtd">
<svg version="1.1"
	 id="svg4228" xmlns:dc="http://purl.org/dc/elements/1.1/" xmlns:cc="http://creativecommons.org/ns#" xmlns:rdf="http://www.w3.org/1999/02/22-rdf-syntax-ns#" xmlns:svg="http://www.w3.org/2000/svg" xmlns:sodipodi="http://sodipodi.sourceforge.net/DTD/sodipodi-0.dtd" xmlns:inkscape="http://www.inkscape.org/namespaces/inkscape" sodipodi:docname="InviteRight1510.svg" inkscape:version="0.91 r13725"
	 xmlns="http://www.w3.org/2000/svg" xmlns:xlink="http://www.w3.org/1999/xlink" x="0px" y="0px" width="341.14px"
	 height="69.45px" viewBox="-1.32 18.275 341.14 69.45" enable-background="new -1.32 18.275 341.14 69.45" xml:space="preserve">
<sodipodi:namedview  showguides="true" showgrid="false" inkscape:cy="923.16723" inkscape:cx="506.89735" inkscape:zoom="1.0180722" borderopacity="1.0" bordercolor="#666666" pagecolor="#ffffff" id="base" inkscape:window-height="1058" inkscape:current-layer="g5207" inkscape:window-maximized="1" inkscape:document-units="px" inkscape:window-width="1920" inkscape:pageopacity="0.0" inkscape:window-y="-8" inkscape:guide-bbox="true" inkscape:pageshadow="2" inkscape:window-x="-8">
	</sodipodi:namedview>
<g id="layer1" inkscape:label="Layer 1" inkscape:groupmode="layer">
	<g id="g5207">
		<g id="g5420" transform="matrix(1.5772166,0,0,1.5772166,-156.9206,-1230.2666)">
			<path id="path14875-9" sodipodi:nodetypes="cccccscscssscs" inkscape:connector-curvature="0" fill="#484A78" d="
				M172.263,821.671h-4.176V806.87h4.176V821.671z M172.791,802.334c0,0.718-0.258,1.342-0.775,1.87
				c-0.504,0.517-1.115,0.775-1.833,0.775c-0.731,0-1.354-0.258-1.871-0.775c-0.516-0.528-0.775-1.152-0.775-1.87
				c0-0.731,0.258-1.354,0.775-1.871c0.516-0.517,1.14-0.775,1.871-0.775c0.718,0,1.329,0.258,1.833,0.775
				C172.533,800.981,172.791,801.604,172.791,802.334z"/>
			<path id="path14877-35" sodipodi:nodetypes="ccccccccccccc" inkscape:connector-curvature="0" fill="#484A78" d="
				M186.073,805.605h-3.42v16.066h-3.968v-16.066h-3.42v-3.987h3.42v-7.492h3.968v7.492h3.42V805.605z"/>
			<path id="path15111" sodipodi:nodetypes="ccccc" inkscape:connector-curvature="0" fill="#484A78" d="M126.835,821.674h-4.221
				v-27.555h4.221V821.674z"/>
			<path id="path15113" inkscape:connector-curvature="0" fill="#484A78" d="M138.663,803.882c2.422,0,4.499,0.864,6.227,2.592
				c1.729,1.729,2.593,3.811,2.593,6.247v8.953h-4.202v-8.953c0-1.275-0.454-2.366-1.363-3.275
				c-0.908-0.896-1.993-1.344-3.256-1.344c-1.274,0-2.366,0.448-3.275,1.344c-0.908,0.909-1.362,2-1.362,3.275v8.953h-4.202v-8.953
				c0-2.436,0.864-4.517,2.593-6.247C134.145,804.745,136.227,803.882,138.663,803.882z"/>
			<path id="path15115" inkscape:connector-curvature="0" fill="#484A78" d="M148.297,803.882h4.448l4.032,11.073l4.012-11.073
				h4.448l-6.454,17.792h-4.013L148.297,803.882L148.297,803.882z"/>
			<path id="path15121" inkscape:connector-curvature="0" fill="#484A78" d="M194.956,808.121c-0.593,0.026-1.167,0.158-1.723,0.398
				c-0.593,0.265-1.105,0.619-1.533,1.06c-0.379,0.454-0.688,0.953-0.928,1.495c-0.189,0.479-0.296,0.959-0.321,1.438l7.59-3.331
				c-0.378-0.303-0.789-0.549-1.23-0.738c-0.58-0.215-1.174-0.322-1.779-0.322L194.956,808.121L194.956,808.121z M195.145,821.674
				c-1.123,0-2.208-0.201-3.256-0.606c-1.085-0.428-2.044-1.041-2.876-1.836c-0.884-0.82-1.559-1.779-2.026-2.877
				c-0.479-1.035-0.738-2.119-0.776-3.256v-0.284c0-1.136,0.202-2.22,0.606-3.256c0.428-1.085,1.035-2.044,1.817-2.877
				c0.833-0.883,1.798-1.559,2.896-2.026c1.072-0.479,2.189-0.738,3.349-0.776h0.19c1.123,0,2.209,0.209,3.256,0.625
				c1.073,0.428,2.031,1.041,2.877,1.836c1.01,0.972,1.968,2.568,2.877,4.788l-11.925,5.243c0.391,0.317,0.808,0.562,1.249,0.739
				c0.555,0.215,1.117,0.322,1.685,0.322h0.189c0.581-0.026,1.148-0.158,1.704-0.398c0.568-0.253,1.073-0.606,1.514-1.06
				c0.391-0.454,0.707-0.953,0.947-1.495l3.937,1.514c-0.429,1.072-1.035,2.031-1.817,2.877c-0.82,0.882-1.779,1.559-2.877,2.025
				c-1.047,0.48-2.139,0.737-3.274,0.776H195.145L195.145,821.674z"/>
			
				<path id="path5081-5-0-7-8-5" sodipodi:nodetypes="scscscscscccccscscscscscc" inkscape:connector-curvature="0" fill="#FF8811" d="
				M245.373,808.206c-1.265,0-2.353,0.45-3.267,1.352c-0.888,0.913-1.333,2.009-1.333,3.285c0,1.264,0.445,2.354,1.333,3.267
				c0.913,0.901,2.002,1.352,3.267,1.352c1.277,0,2.372-0.451,3.285-1.352c0.901-0.913,1.352-2.003,1.352-3.267
				c0-1.277-0.451-2.372-1.352-3.285C247.745,808.656,246.65,808.206,245.373,808.206z M254.179,823.452
				c0,3.83-1.127,6.72-3.38,8.674c-1.701,1.489-3.654,2.249-5.794,2.249c-0.001-1.372-0.001-2.755,0-4.162
				c1.038-0.025,1.989-0.366,2.828-1.017c1.464-1.138,2.197-3.054,2.197-5.744v-3.079c-1.376,0.864-2.93,1.295-4.656,1.295
				c-2.428,0-4.501-0.864-6.215-2.591c-1.74-1.727-2.61-3.805-2.61-6.234c0-2.44,0.87-4.518,2.61-6.233
				c1.714-1.74,3.787-2.61,6.215-2.61c2.44,0,4.526,0.87,6.252,2.61c1.701,1.715,2.553,3.792,2.553,6.233V823.452L254.179,823.452z"
				/>
			<path id="path5077-7-9-4-5-8" sodipodi:nodetypes="ccscccccccccscccc" inkscape:connector-curvature="0" fill="#FF8205" d="
				M214.91,810.478c6.396-0.003,9.098-6.363,5.369-9.805c-1.489-1.489-4.047-2.234-5.369-2.234h-3.267v12.039H214.91z
				 M221.631,821.668l-5.444-6.854h-4.543v6.854h-4.336v-27.547h7.604c3.291,0,6.324,1.003,8.652,3.331
				c4.95,5.435,3.268,12.695-2.926,15.917l6.515,8.299H221.631L221.631,821.668L221.631,821.668z"/>
			<path id="path5079-0-4-6-2-3" sodipodi:nodetypes="ccccc" inkscape:connector-curvature="0" fill="#FF8205" d="M233.928,821.668
				h-4.149v-17.951l4.149,4.122V821.668z"/>
			<path id="path5083-3-8-7-5-98" sodipodi:nodetypes="scsccscscscccccs" inkscape:connector-curvature="0" fill="#FF8205" d="
				M265.855,804.019c2.39,0,4.437,0.845,6.139,2.535c1.703,1.702,2.553,3.755,2.553,6.158v8.956h-4.149v-8.956
				c0-1.264-0.445-2.334-1.332-3.21c-0.889-0.901-1.959-1.351-3.21-1.351c-1.253,0-2.329,0.45-3.23,1.351
				c-0.888,0.876-1.332,1.947-1.332,3.21v8.956h-4.263v-27.547h4.15v11.25C262.593,804.469,264.152,804.019,265.855,804.019
				L265.855,804.019z"/>
			<path id="path5085-4-7-6-1-7" sodipodi:nodetypes="ccccccccccccc" inkscape:connector-curvature="0" fill="#FF8205" d="
				M286.16,805.562h-3.399v16.106h-3.943v-16.106h-3.397v-3.961h3.397v-7.48h3.943v7.48h3.399V805.562z"/>
			<path id="path14210-0-5" sodipodi:nodetypes="ccccccc" inkscape:connector-curvature="0" fill="#484A78" d="M229.751,794.728
				v5.878l4.172,4.161l10.653-10.643h-5.899l-4.755,4.765L229.751,794.728z"/>
		</g>
	</g>
</g>
</svg>
